<svg width="64" height="64" viewBox="0 0 64 64" fill="none" xmlns="http://www.w3.org/2000/svg">
  <rect x="4" y="4" width="56" height="56" rx="16" fill="#0F2E5B"/>
  <rect x="10" y="10" width="44" height="44" rx="12" fill="#123A71"/>
  <path d="M20 28.5C20 25.4624 22.4624 23 25.5 23H28.5C31.5376 23 34 25.4624 34 28.5C34 31.5376 31.5376 34 28.5 34H25.5C22.4624 34 20 31.5376 20 28.5Z" fill="#D7E6FF"/>
  <path d="M30 36.5C30 33.4624 32.4624 31 35.5 31H38.5C41.5376 31 44 33.4624 44 36.5C44 39.5376 41.5376 42 38.5 42H35.5C32.4624 42 30 39.5376 30 36.5Z" fill="#EAF2FF"/>
  <circle cx="38" cy="26" r="6" fill="#A6C4F8"/>
  <circle cx="24" cy="40" r="4" fill="#9EC0F9"/>
</svg>
